#!OML:ASF F:\VICON\USERDATA\INSTALL\rory3\rory3.ASF
:FULLY-SPECIFIED
:DEGREES
108
root 0.02376272516303221 18.012707315939615 26.382375389641908 3.687352840800652 -0.6388414487755372 -3.331477556094879
lfemur -24.380283785473523 1.7679012356891493 -21.292892261473302
ltibia 52.90294347592495
lfoot -0.3957171020549874 -7.432800395273446
ltoes -27.143410168980367
rfemur -10.925033530000363 3.2132391781702534 29.311232847181902
rtibia 96.23949698717098
rfoot 4.803308300536447 -7.388693470873536
rtoes -11.003929946252093
lowerback 13.80853554418699 2.14818763629394 2.7724870883649464
upperback -2.041848435951276 3.500107996247351 0.8196533262912942
thorax -8.946857959043879 1.6871049777673592 -1.8414282169461182
lowerneck -19.234293793808316 -4.829606571720979 -1.998945268745908
upperneck 14.660061628740586 -6.646795948536565 2.4106087187139327
head 7.997444458956386 -3.065074680552939 0.3404714901303919
lclavicle 7.933867048967321e-17 -3.510693723854736e-16
lhumerus -46.875146731070885 -17.71550241116927 98.59963524201025
lradius 101.30282538847159
lwrist 33.17924734075298
lhand -23.909612113553738 1.567166491105402
lfingers 7.12502
lthumb 2.7515475027233345 31.429274935398603
rclavicle 7.933867062468281e-17 -3.5106937228603856e-16
rhumerus -53.32679219024431 7.846790115366031 -93.757689106802
rradius 108.83055791472454
rwrist -11.629129167236531
rhand -17.366451505943754 42.23381373050736
rfingers 7.12502
rthumb 8.481246840787646 12.259964566629886
109
root 0.03101806687255365 17.997213098812626 26.794152174958384 3.589399613923057 -0.5942187002995936 -3.262359408598222
lfemur -23.302712463854753 1.6466320722897771 -21.52013626272906
ltibia 50.42433399025742
lfoot -0.05044658600370319 -6.955525573157528
ltoes -25.361565564923794
rfemur -12.100206084102766 3.0124851681989204 29.125691027730415
rtibia 97.57656120254912
rfoot 5.072293782690571 -7.224797099990915
rtoes -10.599608578059168
lowerback 13.812687897269806 2.145866772276679 2.6996358911093674
upperback -2.053373789019883 3.4809071786310346 0.7990504512202896
thorax -8.879805338934453 1.6720337279793336 -1.8290449694294344
lowerneck -19.296458876150613 -4.857001691587622 -2.0230626464304353
upperneck 14.612409997288793 -6.694887686478968 2.4799716713613242
head 7.965640085433172 -3.082935339597433 0.3737948982944617
lclavicle 7.9338670489657e-17 -3.5106937238593147e-16
lhumerus -46.153198065177854 -18.00199330747205 98.58602846956192
lradius 101.40710485792644
lwrist 33.031117544916604
lhand -23.908940726718026 1.6397701784859422
lfingers 7.12502
lthumb 2.6569397243488275 31.371018852069646
rclavicle 7.933867062337156e-17 -3.5106937228750145e-16
rhumerus -53.457954339976574 7.694945203044584 -93.76857176695408
rradius 108.93478537342027
rwrist -11.501032767108388
rhand -17.44708348479221 42.07597444694904
rfingers 7.12502
rthumb 8.467550485625562 12.031335235584445
110
root 0.03497329015280737 17.972311100954133 27.197778533829847 3.465696025845424 -0.525432237223155 -3.1721363137663285
lfemur -22.22433918837284 1.5324561886930668 -21.75605932832925
ltibia 48.0769085163543
lfoot -0.31305755371578314 -7.050756786420939
ltoes -24.603822325155665
rfemur -13.30351039027229 2.7729643078718538 28.93977096110555
rtibia 98.83180410377436
rfoot 5.23450115096992 -7.122757408963554
rtoes -10.905090917166536
lowerback 13.83754408939491 2.1319097140620396 2.5921924457092063
upperback -2.049885414611935 3.4424002636562556 0.7837927073513962
thorax -8.813948424105632 1.6645727317323027 -1.780579139692726
lowerneck -19.481851682805434 -4.8674461036530365 -2.0586720180528832
upperneck 14.55304459996326 -6.721933932920816 2.557063021938205
head 7.963998997948317 -3.0744806361125905 0.40191236208399284
lclavicle 7.933867049105073e-17 -3.5106937238525e-16
lhumerus -45.548045297250944 -18.290861646363933 98.56481758089868
lradius 101.59969475744046
lwrist 32.940067605694445
lhand -24.035900483830176 1.4708227911433727
lfingers 7.12502
lthumb 2.6649664454099833 31.314359117186346
rclavicle 7.93386706265119e-17 -3.510693722855015e-16
rhumerus -53.5238542533597 7.567696292097521 -93.78569383944283
rradius 109.02707188590303
rwrist -11.159131772552573
rhand -17.578032667716094 41.86814557225524
rfingers 7.12502
rthumb 8.4649582137282 11.786240655503038
111
root 0.03200436201558021 17.942941957019972 27.557368767070585 3.322639677419914 -0.4609279705219327 -3.099132696680686
lfemur -21.184185736689408 1.4407831968190536 -21.950294571211685
ltibia 45.907878510325794
lfoot -1.1412027547976284 -7.638543387388026
ltoes -25.1581269401552
rfemur -14.477422171567657 2.5293751024392264 28.770580226532353
rtibia 99.97871194247212
rfoot 5.086763484769632 -7.219491340305757
rtoes -11.572697819199867
lowerback 13.905928531780303 2.1166038278764234 2.4770261925273207
upperback -1.9513847664380384 3.384787656969734 0.7460567867520549
thorax -8.693351355107714 1.643279649382248 -1.6867944898898852
lowerneck -19.67716325408506 -4.867595216607369 -2.0152437489765904
upperneck 14.440880992265974 -6.73299977235236 2.6185362042169964
head 7.919925583871556 -3.081345260811938 0.43107579418332787
lclavicle 7.93386704919691e-17 -3.510693723848025e-16
lhumerus -44.825245006570746 -18.662318182543892 98.40391663458878
lradius 101.78502695989619
lwrist 32.925762298194996
lhand -24.015423027963468 1.669388789256982
lfingers 7.12502
lthumb 2.6152591701943475 31.277766158201477
rclavicle 7.933867062623383e-17 -3.5106937228603155e-16
rhumerus -53.55268659736413 7.445799244963707 -93.82311278879335
rradius 109.11154668581726
rwrist -10.977761002621461
rhand -17.63661338471179 41.701603929446804
rfingers 7.12502
rthumb 8.498469721627457 11.517827682297103
112
root 0.027840392184226403 17.913463804362003 27.829533502991637 3.1753579779169208 -0.4037630592513719 -3.0312994606657524
lfemur -20.156371912534297 1.3781981159212333 -22.10294625395019
ltibia 43.96704144427043
lfoot -1.042546963777314 -7.9719804408560915
ltoes -23.121386476999408
rfemur -15.641933326695899 2.2641421097598182 28.602308418641847
rtibia 100.96857840828548
rfoot 4.848263643639921 -7.4345381293631565
rtoes -9.616785619856604
lowerback 13.98606540867153 2.1028440379266558 2.3678802049172267
upperback -1.9294626932777619 3.3429738393988457 0.7179858257332803
thorax -8.686418091660757 1.6240897204016265 -1.5973089602294335
lowerneck -19.715517551966734 -4.887415619249149 -2.0382637047281094
upperneck 14.256491732325275 -6.767978064638127 2.7049473754825306
head 7.849189870337178 -3.0832751558641913 0.4676148537849647
lclavicle 7.933867049303156e-17 -3.5106937238416265e-16
lhumerus -44.379357240320516 -18.940086535858317 98.38826867916907
lradius 102.04817523201551
lwrist 32.889233389685366
lhand -24.06745259630981 1.7087284916592722
lfingers 7.12502
lthumb 2.5915400209379413 31.361464420630284
rclavicle 7.93386706237377e-17 -3.5106937228811163e-16
rhumerus -53.53427704185596 7.346803472695106 -93.87175884455453
rradius 109.1762547412315
rwrist -10.594582808353977
rhand -17.704505132291924 41.43931121919433
rfingers 7.12502
rthumb 8.574172069871343 11.248189420611713
113
root 0.023475411108093397 17.880487406282754 28.0230691727228 3.017449090233911 -0.35656480413340197 -2.981192916539099
lfemur -19.16715362635511 1.3316983157956324 -22.225919002241973
ltibia 42.28509994631975
lfoot -1.4320325237734557 -8.264821007079368
ltoes -21.152502263126777
rfemur -16.772209985846942 2.0016958273679806 28.469926133867677
rtibia 101.84500309429717
rfoot 4.4557751237611924 -7.63784722330034
rtoes -11.020383346812604
lowerback 14.074304826390469 2.0890633642154923 2.273533662477509
upperback -1.8532150155825555 3.2967299510324795 0.6718017331791699
thorax -8.643464578496527 1.6077715067552172 -1.5244027856216793
lowerneck -19.82768160217825 -4.876514817103796 -2.0282479243186424
upperneck 14.07009351795672 -6.762229384976152 2.7818977134366443
head 7.784416306953501 -3.0710569252392954 0.5015333824561724
lclavicle 7.933867049077376e-17 -3.510693723858588e-16
lhumerus -43.86583931612244 -19.00208252102705 98.32700887448712
lradius 102.353982057957
lwrist 32.86857729255626
lhand -24.053701595996277 1.8305877106490056
lfingers 7.12502
lthumb 2.7292370145585574 31.71326045574857
rclavicle 7.933867062378757e-17 -3.510693722880581e-16
rhumerus -53.493115821615284 7.252876589702164 -93.94877939394169
rradius 109.23737298353402
rwrist -10.33395062045818
rhand -17.692650656108032 41.205254072321864
rfingers 7.12502
rthumb 8.632383909175157 10.950707833590302
114
root 0.007887502265597285 17.837536106726738 28.1546500139142 2.8367569160357533 -0.34287397650191354 -2.959119145424867
lfemur -18.264615405390863 1.3202503237971543 -22.289358286532437
ltibia 40.887616873596286
lfoot -1.8673481634955544 -7.829180123035629
ltoes -19.43611388909532
rfemur -17.874684943775534 1.794948052446579 28.38292605134279
rtibia 102.58714107569998
rfoot 4.290273401760205 -7.993072951729829
rtoes -10.24597436471889
lowerback 14.209469687971282 2.089348906747239 2.1663772867608477
upperback -1.7702481065772178 3.269090125904369 0.6439978529815282
thorax -8.643044023100693 1.5926417470407759 -1.4358248270699365
lowerneck -19.899702498670077 -4.855902107352792 -2.006857047862001
upperneck 13.856543077310999 -6.742404724577197 2.855711573160023
head 7.7075899304175675 -3.050980215286205 0.5349183966999277
lclavicle 7.933867049237707e-17 -3.510693723845402e-16
lhumerus -43.39439895360366 -19.27333155377792 98.21453257912115
lradius 102.62700650368333
lwrist 32.843247749263284
lhand -24.108181943834406 1.906591275942295
lfingers 7.12502
lthumb 2.4874556317375767 31.584583429972785
rclavicle 7.933867062392843e-17 -3.5106937228783243e-16
rhumerus -53.38747737817463 7.183541282712398 -94.05488485309525
rradius 109.27142691806756
rwrist -9.879499017412781
rhand -17.701692105331016 40.96970577155847
rfingers 7.12502
rthumb 8.673865377580078 10.653173183414683
